# MagicaVoxel @ Ephtracy

# group
o 

# material
mtllib doors-0.mtl
usemtl palette

# normals
vn -1 0 0
vn 1 0 0
vn 0 0 1
vn 0 0 -1
vn 0 -1 0
vn 0 1 0

# texcoords
vt 0.939453 0.5
vt 0.943359 0.5

# verts
v 0 0 0
v 0 0 -0.1
v 0 0.3 0
v 0 0.3 -0.1
v 0 0.4 0
v 0 0.4 -0.1
v 0.3 0 0
v 0.3 0 -0.1
v 0.3 0.4 0
v 0.3 0.4 -0.1
v 0 0 0
v 0 0.3 0
v 0 0.4 0
v 0.1 0 0
v 0.1 0.1 0
v 0.1 0.2 0
v 0.1 0.3 0
v 0.1 0.4 0
v 0.2 0 0
v 0.2 0.1 0
v 0.2 0.2 0
v 0.2 0.3 0
v 0.3 0 0
v 0.3 0.4 0
v 0 0 -0.1
v 0 0.3 -0.1
v 0 0.4 -0.1
v 0.1 0 -0.1
v 0.1 0.1 -0.1
v 0.1 0.2 -0.1
v 0.1 0.3 -0.1
v 0.1 0.4 -0.1
v 0.2 0 -0.1
v 0.2 0.1 -0.1
v 0.2 0.2 -0.1
v 0.2 0.3 -0.1
v 0.3 0 -0.1
v 0.3 0.4 -0.1
v 0 0 0
v 0.1 0 0
v 0.2 0 0
v 0.3 0 0
v 0 0 -0.1
v 0.1 0 -0.1
v 0.2 0 -0.1
v 0.3 0 -0.1
v 0 0.4 0
v 0.1 0.4 0
v 0.3 0.4 0
v 0 0.4 -0.1
v 0.1 0.4 -0.1
v 0.3 0.4 -0.1

# faces
f 3/2/1 2/2/1 1/2/1
f 4/2/1 2/2/1 3/2/1
f 5/1/1 4/1/1 3/1/1
f 6/1/1 4/1/1 5/1/1
f 7/2/2 8/2/2 9/2/2
f 9/2/2 8/2/2 10/2/2
f 14/2/3 12/2/3 11/2/3
f 15/2/3 12/2/3 14/2/3
f 16/2/3 12/2/3 15/2/3
f 17/1/3 13/1/3 12/1/3
f 17/2/3 12/2/3 16/2/3
f 18/1/3 13/1/3 17/1/3
f 19/1/3 15/1/3 14/1/3
f 20/2/3 16/2/3 15/2/3
f 20/1/3 15/1/3 19/1/3
f 21/1/3 17/1/3 16/1/3
f 21/2/3 16/2/3 20/2/3
f 22/2/3 18/2/3 17/2/3
f 22/1/3 17/1/3 21/1/3
f 23/2/3 20/2/3 19/2/3
f 23/2/3 21/2/3 20/2/3
f 23/2/3 22/2/3 21/2/3
f 24/2/3 18/2/3 22/2/3
f 24/2/3 22/2/3 23/2/3
f 25/2/4 26/2/4 28/2/4
f 28/2/4 26/2/4 29/2/4
f 29/2/4 26/2/4 30/2/4
f 26/1/4 27/1/4 31/1/4
f 30/2/4 26/2/4 31/2/4
f 31/1/4 27/1/4 32/1/4
f 28/1/4 29/1/4 33/1/4
f 29/2/4 30/2/4 34/2/4
f 33/1/4 29/1/4 34/1/4
f 30/1/4 31/1/4 35/1/4
f 34/2/4 30/2/4 35/2/4
f 31/2/4 32/2/4 36/2/4
f 35/1/4 31/1/4 36/1/4
f 33/2/4 34/2/4 37/2/4
f 34/2/4 35/2/4 37/2/4
f 35/2/4 36/2/4 37/2/4
f 36/2/4 32/2/4 38/2/4
f 37/2/4 36/2/4 38/2/4
f 43/2/5 40/2/5 39/2/5
f 44/1/5 41/1/5 40/1/5
f 44/2/5 40/2/5 43/2/5
f 45/2/5 42/2/5 41/2/5
f 45/1/5 41/1/5 44/1/5
f 46/2/5 42/2/5 45/2/5
f 47/1/6 48/1/6 50/1/6
f 48/2/6 49/2/6 51/2/6
f 50/1/6 48/1/6 51/1/6
f 51/2/6 49/2/6 52/2/6
